# xmcd
#
# Track frame offsets: 
#        150
#        18047
#        35824
#        53871
#        76298
#        97780
#        118482
#        135112
#        154194
#        175474
#        192351
#        210016
#        223713
#
# Disc length: 3209 seconds
#
# Revision: 0
# Processed by: cddbd v1.5.2PL0 Copyright (c) Steve Scherf et al.
# Submitted via: ExactAudioCopy v1.0b1
#
DISCID=a70c870d
DTITLE=Bondi Cigars - After Closing Time
DYEAR=1995
DGENRE=Blues
TTITLE0=Separation Blues
TTITLE1=Leaving Thing
TTITLE2=Life After You
TTITLE3=Intensive Care
TTITLE4=Imitation of Love
TTITLE5=Cold Cold World
TTITLE6=After Closing Time
TTITLE7=Too Bad
TTITLE8=Lead Me Not Into Temptation
TTITLE9=They Only Come Out at Night
TTITLE10=If Walls Could Talk
TTITLE11=Paris On $10 a Day
TTITLE12=Speakeasy
EXTD=
EXTT0=
EXTT1=
EXTT2=
EXTT3=
EXTT4=
EXTT5=
EXTT6=
EXTT7=
EXTT8=
EXTT9=
EXTT10=
EXTT11=
EXTT12=
PLAYORDER=
